<?xml version="1.0" encoding="utf-8"?>
<!-- Generator: Adobe Illustrator 17.0.0, SVG Export Plug-In . SVG Version: 6.00 Build 0)  -->
<!DOCTYPE svg PUBLIC "-//W3C//DTD SVG 1.1//EN" "http://www.w3.org/Graphics/SVG/1.1/DTD/svg11.dtd">
<svg version="1.1" id="Layer_1" xmlns="http://www.w3.org/2000/svg" xmlns:xlink="http://www.w3.org/1999/xlink" x="0px" y="0px"
	 width="6px" height="6px" viewBox="166.266 179.668 6 6" enable-background="new 166.266 179.668 6 6" xml:space="preserve">
<g id="Layer_2">
	<g id="Layer_1-2">
		<g id="Brand_mark">
			<path fill="#1370FB" d="M169.498,181.718h-0.258c-0.475,0-0.787,0.339-0.787,0.774v0.353c0,0.434,0.312,0.774,0.787,0.774h0.258
				c0.692,0,0.638-0.706,1.683-0.706c0.099,0,0.198,0.009,0.295,0.027c0.032-0.18,0.032-0.363,0-0.543
				c-0.097,0.018-0.196,0.027-0.295,0.027C170.135,182.424,170.19,181.718,169.498,181.718"/>
			<path fill="#1370FB" d="M172.077,183.197c-0.178-0.13-0.383-0.219-0.6-0.258c0,0.002,0,0.003,0,0.005
				c-0.019,0.104-0.048,0.206-0.087,0.304c0.179,0.028,0.35,0.098,0.496,0.204c0,0.001-0.001,0.003-0.001,0.005
				c-0.436,1.413-1.935,2.204-3.347,1.768c-1.413-0.436-2.204-1.935-1.768-3.347c0.436-1.413,1.935-2.204,3.347-1.768
				c0.845,0.261,1.507,0.923,1.768,1.768c0,0.002,0.001,0.003,0.001,0.005c-0.147,0.107-0.317,0.177-0.496,0.204
				c0.039,0.098,0.068,0.2,0.087,0.305c0,0.002,0,0.003,0,0.005c0.217-0.039,0.422-0.128,0.6-0.258
				c0.171-0.127,0.138-0.27,0.112-0.355c-0.488-1.583-2.168-2.471-3.751-1.983c-1.583,0.488-2.471,2.168-1.983,3.751
				s2.168,2.471,3.751,1.983c0.948-0.292,1.691-1.035,1.983-1.983C172.215,183.467,172.248,183.324,172.077,183.197"/>
			<path fill="#1370FB" d="M171.181,183.233c-0.455,0-0.626,0.152-0.823,0.327c-0.191,0.169-0.428,0.379-0.86,0.379h-0.258
				c-0.312,0-0.596-0.113-0.799-0.319c-0.199-0.201-0.308-0.476-0.308-0.775v-0.001v-0.352v-0.001c0-0.299,0.109-0.574,0.308-0.775
				c0.203-0.206,0.487-0.319,0.799-0.319h0.258c0.432,0,0.669,0.21,0.86,0.379c0.198,0.174,0.368,0.327,0.824,0.327
				c0.058,0,0.116-0.004,0.174-0.012c0.011-0.002,0.022-0.003,0.033-0.005l-0.001-0.004c-0.027-0.068-0.059-0.133-0.096-0.197
				l-0.304-0.527c-0.279-0.483-0.795-0.781-1.353-0.781h-0.608c-0.558,0-1.074,0.298-1.353,0.781l-0.304,0.527
				c-0.279,0.484-0.279,1.079,0,1.563l0.304,0.527c0.279,0.483,0.795,0.781,1.353,0.781h0.608c0.558,0,1.074-0.298,1.353-0.781
				l0.304-0.526c0.036-0.063,0.068-0.129,0.096-0.197l0.002-0.004c-0.023-0.004-0.046-0.007-0.069-0.009
				C171.273,183.235,171.227,183.233,171.181,183.233z"/>
		</g>
	</g>
</g>
</svg>
