<?xml version="1.0" encoding="utf-8"?>
<!-- Generator: Adobe Illustrator 17.0.0, SVG Export Plug-In . SVG Version: 6.00 Build 0)  -->
<!DOCTYPE svg PUBLIC "-//W3C//DTD SVG 1.1//EN" "http://www.w3.org/Graphics/SVG/1.1/DTD/svg11.dtd">
<svg version="1.1" id="Layer_1" xmlns="http://www.w3.org/2000/svg" xmlns:xlink="http://www.w3.org/1999/xlink" x="0px" y="0px"
	 width="20px" height="20px" viewBox="0 0 20 20" enable-background="new 0 0 20 20" xml:space="preserve">
<path fill="#436AF3" d="M13.183,8.819H6.734C6.99,4.145,8.731,1.222,9.958,1.222C11.186,1.222,12.926,4.145,13.183,8.819z
	 M6.734,11.181c0.256,4.674,1.997,7.597,3.225,7.597c1.228,0,2.968-2.923,3.224-7.597H6.734z M15.55,8.819h4.296
	c-0.464-3.921-3.202-7.143-6.861-8.309C14.412,2.25,15.376,5.232,15.55,8.819z M4.367,8.819C4.541,5.232,5.504,2.25,6.932,0.51
	C3.273,1.676,0.535,4.898,0.071,8.819H4.367z M15.55,11.181c-0.174,3.586-1.138,6.569-2.565,8.309
	c3.659-1.166,6.397-4.388,6.861-8.309H15.55z M4.367,11.181H0.071c0.464,3.921,3.202,7.143,6.861,8.309
	C5.504,17.75,4.541,14.768,4.367,11.181z"/>
</svg>
