<?xml version="1.0" encoding="utf-8"?>
<!-- Generator: Adobe Illustrator 17.0.0, SVG Export Plug-In . SVG Version: 6.00 Build 0)  -->
<!DOCTYPE svg PUBLIC "-//W3C//DTD SVG 1.1//EN" "http://www.w3.org/Graphics/SVG/1.1/DTD/svg11.dtd">
<svg version="1.1" id="Layer_1" xmlns="http://www.w3.org/2000/svg" xmlns:xlink="http://www.w3.org/1999/xlink" x="0px" y="0px"
	 width="20px" height="20px" viewBox="0 0 20 20" enable-background="new 0 0 20 20" xml:space="preserve">
<path fill="#436AF3" d="M1.199,4.943c-0.154-1.329,0.686-2.558,2.144-3.45c0.759-0.464,1.561-0.492,2.383-0.211
	c0.398,0.136,0.663,0.412,0.777,0.834c0.312,1.148,0.644,2.291,0.949,3.441c0.154,0.581,0.07,1.106-0.422,1.53
	c-0.299,0.258-0.558,0.564-0.833,0.85c-0.336,0.35-0.361,0.74-0.092,1.127c1.315,1.89,2.917,3.5,4.77,4.864
	c0.42,0.309,0.795,0.257,1.157-0.085c0.312-0.296,0.62-0.595,0.933-0.89c0.363-0.343,0.778-0.479,1.274-0.334
	c1.221,0.358,2.444,0.71,3.666,1.062c0.42,0.121,0.682,0.401,0.792,0.811c0.214,0.796,0.165,1.555-0.27,2.291
	c-0.885,1.499-2.165,2.188-3.911,2.111c-2.284-0.1-4.271-0.954-6.079-2.283c-2.498-1.837-4.53-4.098-6.052-6.803
	C1.615,8.442,1.249,6.96,1.199,4.943z"/>
</svg>
