<?xml version="1.0" encoding="utf-8"?>
<!-- Generator: Adobe Illustrator 17.0.0, SVG Export Plug-In . SVG Version: 6.00 Build 0)  -->
<!DOCTYPE svg PUBLIC "-//W3C//DTD SVG 1.1//EN" "http://www.w3.org/Graphics/SVG/1.1/DTD/svg11.dtd">
<svg version="1.1" id="Layer_1" xmlns="http://www.w3.org/2000/svg" xmlns:xlink="http://www.w3.org/1999/xlink" x="0px" y="0px"
	 width="20px" height="20px" viewBox="0 0 20 20" enable-background="new 0 0 20 20" xml:space="preserve">
<path fill="#436AF3" d="M19.959,4.685v8.846c0,2.283-1.851,4.134-4.134,4.134H4.175c-2.283,0-4.134-1.851-4.134-4.134V4.685
	c0-0.328,0.068-0.641,0.189-0.925l6.885,7.812c0.73,0.828,1.781,1.303,2.885,1.303c1.104,0,2.155-0.475,2.884-1.303l6.801-7.717
	c0.03-0.034,0.053-0.072,0.078-0.108C19.889,4.035,19.959,4.352,19.959,4.685z M8.66,10.206c0.342,0.388,0.816,0.602,1.334,0.602
	c0.518,0,0.991-0.214,1.334-0.602l6.801-7.717c0.024-0.027,0.052-0.049,0.079-0.073c-0.193-0.051-0.396-0.081-0.605-0.081H2.385
	c-0.205,0-0.404,0.029-0.593,0.079L8.66,10.206z"/>
</svg>
