<?xml version="1.0" encoding="utf-8"?>
<!-- Generator: Adobe Illustrator 17.0.0, SVG Export Plug-In . SVG Version: 6.00 Build 0)  -->
<!DOCTYPE svg PUBLIC "-//W3C//DTD SVG 1.1//EN" "http://www.w3.org/Graphics/SVG/1.1/DTD/svg11.dtd">
<svg version="1.1" id="Layer_1" xmlns="http://www.w3.org/2000/svg" xmlns:xlink="http://www.w3.org/1999/xlink" x="0px" y="0px"
	 width="6px" height="6px" viewBox="166.266 179.668 6 6" enable-background="new 166.266 179.668 6 6" xml:space="preserve">
<path fill="#1370FB" d="M169.266,179.668c-1.657,0-3,1.343-3,3s1.343,3,3,3s3-1.343,3-3S170.923,179.668,169.266,179.668z
	 M168.395,184.03h-0.607v-1.953h0.607V184.03z M168.065,181.827c-0.224,0-0.369-0.145-0.369-0.343c0-0.198,0.145-0.343,0.369-0.343
	s0.369,0.145,0.369,0.343C168.435,181.682,168.303,181.827,168.065,181.827z M170.836,184.03h-0.699v-1.016
	c0-0.264-0.106-0.449-0.343-0.449c-0.185,0-0.277,0.119-0.33,0.237c-0.013,0.04-0.013,0.106-0.013,0.158v1.055h-0.686
	c0,0,0.013-1.794,0-1.953h0.686v0.303c0.04-0.132,0.264-0.33,0.607-0.33c0.435,0,0.778,0.277,0.778,0.884V184.03z"/>
</svg>
