<svg width="436" height="96" viewBox="0 0 436 96" fill="none" xmlns="http://www.w3.org/2000/svg">
<path d="M142.134 7.00451L115.639 22.8786L124.276 37.2003L141.818 26.6379V80.071C139.871 80.5866 140.098 80.5367 138.151 81.0524L95.4345 7.00451H62.2378L100.1 72.6523C105.503 82.0227 115.162 88.4599 125.974 89.0144C144.003 89.9403 158.921 75.6187 158.921 57.7984V7.00451H142.134ZM33.5569 7.04887C15.5273 6.10629 0.609863 20.4446 0.609863 38.2648V89.0587H17.3968L43.892 73.1846L35.2544 58.863L17.713 69.4254V15.9812C19.6602 15.4655 19.4328 15.5154 21.38 14.9998L64.0907 89.0587H97.2874L59.4308 23.4109C54.0274 14.0406 44.3691 7.60332 33.5569 7.04887Z" fill="black"/>
<path d="M202.303 25.5179H219.894V30.3915H202.303V25.5179ZM208.067 3.1732H213.986L227.683 39.4736H221.459L214.452 19.5075C213.964 18.0493 213.487 16.6354 212.993 15.2604C212.544 13.974 212.211 12.9816 211.989 12.2829C211.761 11.5788 211.445 10.614 211.035 9.41085H210.979C209.947 12.5879 208.794 15.9923 207.551 19.6295L200.544 39.4902H194.425L208.072 3.18984V3.17875L208.067 3.1732Z" fill="black"/>
<path d="M231.833 10.9467H237.33V15.6596H237.436C238.19 14.0683 239.106 12.8818 240.165 12.1111C241.225 11.3293 242.723 10.9467 244.659 10.9467H247.466V15.6596H243.782C241.596 15.6596 240.004 16.2806 238.989 17.5281C237.968 18.7701 237.452 20.6774 237.452 23.2335V39.4625H231.849V10.9467H231.838H231.833Z" fill="black"/>
<path d="M256.464 37.5551C255.166 36.2688 254.517 34.3781 254.517 31.8498V3.1732H260.12V31.384C260.12 32.565 260.414 33.4078 260.979 33.9512C261.551 34.4945 262.411 34.7607 263.548 34.7607H269.207V39.4736H262.2C259.67 39.4736 257.762 38.8359 256.464 37.5551ZM248.908 10.9467H268.99V15.6596H248.908V10.9467Z" fill="black"/>
<path d="M273.456 10.9467H279.059V39.4625H273.456V10.9467ZM273.406 0.472992H279.115V6.01757H273.406V0.472992Z" fill="black"/>
<path d="M289.644 39.0522C287.841 38.2205 286.448 37.0284 285.472 35.4759C284.49 33.929 283.963 32.0993 283.897 30.0367H289.71C289.816 31.944 290.426 33.3579 291.552 34.2838C292.678 35.2264 294.187 35.6866 296.096 35.6866C297.3 35.6866 298.359 35.5036 299.263 35.1155C300.162 34.7329 300.856 34.1896 301.344 33.4854C301.832 32.7813 302.07 31.9496 302.07 31.0236C302.07 29.7816 301.649 28.828 300.8 28.1793C299.951 27.5194 298.642 27.1979 296.878 27.1979H293.766C290.864 27.1979 288.573 26.4715 286.915 25.0133C285.256 23.5551 284.424 21.6256 284.424 19.2026C284.424 17.4394 284.873 15.8814 285.777 14.5008C286.676 13.1368 287.991 12.0667 289.727 11.2849C291.463 10.5031 293.477 10.1206 295.796 10.1206C298.115 10.1206 300.29 10.5309 302.021 11.3625C303.757 12.1942 305.066 13.3641 305.993 14.8834C306.908 16.4081 307.396 18.1657 307.474 20.1784H301.71C301.643 18.4153 301.1 17.0679 300.107 16.1253C299.102 15.1828 297.682 14.7226 295.852 14.7226C294.154 14.7226 292.806 15.1051 291.796 15.8592C290.792 16.6133 290.287 17.6446 290.287 18.9198C290.287 20.1008 290.687 20.9713 291.48 21.5424C292.273 22.1135 293.389 22.4018 294.803 22.4018H298.182C301.36 22.4018 303.801 23.1836 305.466 24.7582C307.146 26.3329 307.984 28.3567 307.984 30.8462C307.984 32.6704 307.507 34.3005 306.553 35.7199C305.599 37.1337 304.234 38.2482 302.459 39.0688C300.672 39.8783 298.564 40.2886 296.101 40.2886C293.638 40.2886 291.463 39.8783 289.661 39.0466H289.633L289.644 39.0522Z" fill="black"/>
<path d="M317.654 37.5551C316.355 36.2688 315.706 34.3781 315.706 31.8498V3.1732H321.309V31.384C321.309 32.565 321.603 33.4078 322.169 33.9512C322.741 34.4945 323.601 34.7607 324.738 34.7607H330.396V39.4736H323.39C320.86 39.4736 318.952 38.8359 317.654 37.5551ZM310.103 10.9467H330.185V15.6596H310.103V10.9467Z" fill="black"/>
<path d="M202.303 71.2994H219.894V76.1731H202.303V71.2994ZM208.067 48.9382H213.986L227.683 85.2385H221.459L214.452 65.2725C213.964 63.8143 213.487 62.4004 212.993 61.0253C212.544 59.739 212.211 58.7465 211.989 58.0479C211.761 57.3437 211.445 56.379 211.035 55.1758H210.979C209.947 58.3529 208.794 61.7572 207.551 65.3945L200.544 85.2551H194.425L208.072 48.9548V48.9437L208.067 48.9382Z" fill="black"/>
<path d="M231.833 56.7227H237.33V61.5964H237.436C238.296 59.7723 239.516 58.3528 241.092 57.3715C242.667 56.3901 244.498 55.8911 246.561 55.8911C248.625 55.8911 250.245 56.3402 251.704 57.2439C253.163 58.1477 254.273 59.4839 255.055 61.2693C255.837 63.0547 256.22 65.217 256.22 67.7842V85.2607H250.617V68.3553C250.617 65.6939 250.084 63.7366 249.041 62.4891C247.982 61.2471 246.539 60.6206 244.709 60.6206C243.422 60.6206 242.229 60.9255 241.13 61.5354C240.015 62.1453 239.128 63.099 238.456 64.4075C237.78 65.716 237.452 67.385 237.452 69.3866V85.2607H231.849V56.7449L231.838 56.7338L231.833 56.7227Z" fill="black"/>
<path d="M258.355 90.894H266.2L269.262 83.6805L258.361 56.7117H264.43L272.113 76.9383H272.219L279.902 56.7117H285.916L271.132 93.4223C270.854 94.1486 270.444 94.692 269.911 95.0524C269.367 95.4073 268.707 95.5958 267.908 95.5958H258.355V90.8829V90.894Z" fill="black"/>
<path d="M286.892 56.7227H292.811L297.899 78.1969H298.004L302.88 56.7227H309.266L314.142 78.1969H314.247L319.334 56.7227H325.254L317.321 85.2385H311.202L306.115 64.4962H306.009L300.922 85.2385H294.748L286.903 56.7227H286.892Z" fill="black"/>
<path d="M329.242 44.7409H334.845V56.9334C334.845 58.4582 334.807 59.994 334.74 61.5521H334.845C335.6 59.8554 336.754 58.4915 338.274 57.4602C339.799 56.4289 341.613 55.9132 343.716 55.9132C345.691 55.9132 347.427 56.3623 348.936 57.2661C350.445 58.1643 351.599 59.4618 352.409 61.1584C353.219 62.855 353.63 64.8234 353.63 67.0745V85.2773H348.026V68.3719C348.026 65.6717 347.494 63.7145 346.451 62.478C345.391 61.2471 343.949 60.6372 342.118 60.6372C340.765 60.6372 339.561 60.9311 338.49 61.5244C337.42 62.1065 336.543 63.0602 335.866 64.3687C335.189 65.6772 334.862 67.3628 334.862 69.3977V85.2718H329.259V44.7742L329.248 44.7354L329.242 44.7409Z" fill="black"/>
<path d="M379.476 64.2412C378.854 63.0602 377.967 62.1509 376.802 61.4855C375.637 60.8257 374.272 60.5041 372.68 60.5041C371.088 60.5041 369.701 60.8368 368.536 61.5077C367.354 62.1842 366.444 63.1101 365.779 64.2855C365.119 65.4665 364.708 66.8139 364.536 68.3386H380.419C380.419 66.7751 380.114 65.4111 379.476 64.2467V64.2356V64.2412ZM365.196 84.2349C363.049 83.0041 361.396 81.2575 360.242 78.9898C359.077 76.7276 358.506 74.0496 358.506 70.9779C358.506 67.9062 359.099 65.217 360.292 62.9438C361.485 60.6649 363.127 58.9184 365.218 57.6986C367.31 56.4954 369.734 55.8855 372.502 55.8855C375.099 55.8855 377.429 56.4289 379.509 57.5156C381.589 58.6024 383.204 60.1881 384.385 62.2562C385.567 64.3355 386.149 66.7972 386.149 69.6693V72.6745H364.464C364.569 74.3711 364.952 75.8793 365.629 77.2155C366.306 78.5518 367.232 79.583 368.436 80.326C369.629 81.069 371.021 81.4405 372.608 81.4405C374.411 81.4405 375.947 81.0025 377.229 80.1153C378.51 79.2282 379.415 78.0084 379.931 76.4614H385.85C385.439 78.3688 384.618 80.0377 383.414 81.4682C382.211 82.8987 380.657 84.0242 378.793 84.8448C376.924 85.6544 374.843 86.0647 372.569 86.0647C369.801 86.0647 367.349 85.4548 365.202 84.2239L365.191 84.2349H365.196Z" fill="black"/>
<path d="M390.937 56.7227H396.435V61.4356H396.54C397.294 59.8443 398.21 58.6578 399.269 57.8871C400.329 57.1053 401.827 56.7227 403.763 56.7227H406.57V61.4356H402.886C400.701 61.4356 399.108 62.0566 398.093 63.3042C397.073 64.5461 396.557 66.4535 396.557 69.0095V85.2385H390.954V56.7227H390.942H390.937Z" fill="black"/>
<path d="M428.466 64.2412C427.845 63.0602 426.957 62.1509 425.792 61.4855C424.627 60.8257 423.263 60.5041 421.67 60.5041C420.078 60.5041 418.691 60.8368 417.526 61.5077C416.345 62.1842 415.435 63.1101 414.769 64.2855C414.109 65.4665 413.699 66.8139 413.527 68.3386H429.409C429.409 66.7751 429.093 65.4111 428.466 64.2467V64.2356V64.2412ZM414.187 84.2349C412.04 83.0041 410.387 81.2575 409.233 78.9898C408.068 76.7276 407.496 74.0496 407.496 70.9779C407.496 67.9062 408.09 65.217 409.283 62.9438C410.475 60.6649 412.118 58.9184 414.209 57.6986C416.3 56.4954 418.725 55.8855 421.493 55.8855C424.089 55.8855 426.419 56.4289 428.5 57.5156C430.58 58.6024 432.194 60.1881 433.376 62.2562C434.557 64.3355 435.14 66.7972 435.14 69.6693V72.6745H413.455C413.56 74.3711 413.943 75.8793 414.62 77.2155C415.296 78.5518 416.223 79.583 417.427 80.326C418.619 81.069 420.012 81.4405 421.598 81.4405C423.401 81.4405 424.938 81.0025 426.22 80.1153C427.501 79.2282 428.405 78.0084 428.921 76.4614H434.84C434.43 78.3688 433.609 80.0377 432.405 81.4682C431.201 82.8987 429.648 84.0242 427.784 84.8448C425.914 85.6544 423.834 86.0647 421.56 86.0647C418.791 86.0647 416.339 85.4548 414.192 84.2239L414.181 84.2349H414.187Z" fill="black"/>
</svg>
