<?xml version="1.0" encoding="utf-8"?>
<!-- Generator: Adobe Illustrator 17.0.0, SVG Export Plug-In . SVG Version: 6.00 Build 0)  -->
<!DOCTYPE svg PUBLIC "-//W3C//DTD SVG 1.1//EN" "http://www.w3.org/Graphics/SVG/1.1/DTD/svg11.dtd">
<svg version="1.1" id="Layer_1" xmlns="http://www.w3.org/2000/svg" xmlns:xlink="http://www.w3.org/1999/xlink" x="0px" y="0px"
	 width="53.055px" height="6.997px" viewBox="173.537 179.178 53.055 6.997" enable-background="new 173.537 179.178 53.055 6.997"
	 xml:space="preserve">
<g>
	<path fill="#2D2D2D" d="M181.043,180.147h-1.208c-0.488,0-0.854,0.189-1.099,0.568c-0.244,0.378-0.366,0.905-0.366,1.581v3.881
		h-1.205v-6.994h1.034l0.11,1.184c0.098-0.374,0.275-0.665,0.531-0.873c0.256-0.208,0.568-0.311,0.934-0.311l1.445-0.003
		L181.043,180.147z"/>
	<path fill="#2D2D2D" d="M188.084,185.189h1.215v-5.027h-1.215l0.001-0.984h2.417l-0.001,6.994h-2.417V185.189z"/>
	<path fill="#2D2D2D" d="M175.955,180.163h-1.215v5.027h1.215l-0.001,0.984h-2.417l0.001-6.994h2.417V180.163L175.955,180.163z"/>
	<path fill="#2D2D2D" d="M195.92,179.633c0.539,0.302,0.957,0.719,1.253,1.248c0.296,0.53,0.444,1.125,0.444,1.786
		c0,0.667-0.148,1.267-0.444,1.8c-0.296,0.533-0.714,0.951-1.253,1.253c-0.539,0.302-1.164,0.453-1.875,0.453h-2.338v-6.994h2.338
		C194.755,179.179,195.38,179.33,195.92,179.633z M192.914,185.191h1.131c0.735,0,1.314-0.224,1.735-0.673
		c0.421-0.449,0.631-1.066,0.631-1.851s-0.21-1.399-0.631-1.842c-0.421-0.443-0.999-0.664-1.735-0.664h-1.131V185.191z"/>
	<path fill="#2D2D2D" d="M206.807,185.867c-0.405-0.202-0.738-0.483-1.001-0.843c-0.263-0.359-0.427-0.766-0.494-1.219l1.169-0.145
		c0.084,0.441,0.282,0.797,0.593,1.069c0.311,0.272,0.69,0.408,1.137,0.408c0.362,0,0.667-0.092,0.915-0.276
		c0.248-0.184,0.371-0.418,0.371-0.702c0-0.229-0.073-0.414-0.217-0.553c-0.145-0.139-0.326-0.245-0.544-0.317
		c-0.217-0.072-0.51-0.148-0.879-0.227c-0.489-0.109-0.889-0.22-1.2-0.335c-0.311-0.115-0.575-0.305-0.793-0.571
		c-0.217-0.266-0.326-0.628-0.326-1.087c0-0.368,0.106-0.696,0.317-0.983c0.211-0.287,0.509-0.51,0.892-0.67
		c0.383-0.16,0.82-0.24,1.309-0.24c0.459,0,0.877,0.091,1.255,0.272c0.377,0.181,0.69,0.43,0.938,0.747
		c0.247,0.317,0.408,0.669,0.48,1.055l-1.187,0.127c-0.097-0.368-0.285-0.66-0.566-0.874c-0.281-0.214-0.624-0.322-1.028-0.322
		c-0.381,0-0.683,0.074-0.906,0.222c-0.224,0.148-0.335,0.349-0.335,0.602c0,0.193,0.065,0.35,0.195,0.471
		c0.13,0.121,0.294,0.213,0.494,0.276c0.199,0.063,0.474,0.131,0.824,0.204c0.507,0.109,0.924,0.223,1.25,0.344
		c0.326,0.121,0.605,0.323,0.838,0.607c0.232,0.284,0.349,0.676,0.349,1.178c0,0.405-0.106,0.766-0.317,1.083
		s-0.509,0.563-0.892,0.738c-0.384,0.175-0.823,0.263-1.318,0.263C207.652,186.17,207.211,186.069,206.807,185.867z"/>
	<path fill="#2D2D2D" d="M211.601,186.17v-6.994h1.169v6.994H211.601z"/>
	<path fill="#2D2D2D" d="M219.715,184.526c-0.229,0.529-0.58,0.935-1.051,1.219c-0.471,0.284-1.039,0.426-1.703,0.426
		c-0.64,0-1.214-0.151-1.721-0.453c-0.507-0.302-0.906-0.719-1.196-1.25c-0.29-0.531-0.435-1.132-0.435-1.803s0.143-1.27,0.43-1.798
		c0.287-0.528,0.684-0.942,1.191-1.241c0.507-0.299,1.081-0.448,1.721-0.448c0.471,0,0.907,0.094,1.309,0.281
		c0.402,0.187,0.738,0.452,1.01,0.793c0.272,0.341,0.45,0.738,0.535,1.191l-1.151,0.217c-0.097-0.429-0.305-0.776-0.625-1.042
		c-0.32-0.266-0.704-0.399-1.151-0.399c-0.399,0-0.758,0.104-1.078,0.313c-0.32,0.208-0.571,0.498-0.752,0.87
		c-0.181,0.371-0.272,0.793-0.272,1.264c0,0.477,0.092,0.901,0.276,1.273c0.184,0.371,0.442,0.661,0.775,0.87
		c0.332,0.208,0.71,0.313,1.132,0.313c0.513,0,0.93-0.133,1.25-0.399c0.32-0.266,0.516-0.634,0.589-1.105h-1.413v-0.951h2.636
		C220.047,183.377,219.944,183.997,219.715,184.526z"/>
	<path fill="#2D2D2D" d="M226.591,186.17h-1.571l-2.637-4.89l-0.29-0.636v5.526h-1.206v-6.994h1.552l2.59,4.797l0.346,0.729v-5.526
		h1.216V186.17L226.591,186.17z"/>
	<path fill="#2D2D2D" d="M204.766,182.538c0-2.104-1.168-3.359-3.123-3.359c-1.977,0-3.254,1.37-3.254,3.49
		c0,1.02,0.291,1.888,0.843,2.511c0.575,0.65,1.409,0.993,2.411,0.993c0.823,0,1.51-0.214,2.041-0.635
		c0.46-0.365,0.796-0.89,0.976-1.523h-1.199c-0.1,0.312-0.502,1.206-1.792,1.206c-0.631,0-1.159-0.231-1.526-0.669
		c-0.326-0.389-0.514-0.931-0.527-1.527l-0.001-0.049h5.143C204.766,182.867,204.766,182.7,204.766,182.538z M203.513,182.062
		h-3.901l0.004-0.052c0.08-1.124,0.879-1.88,1.988-1.88c0.564,0,1.046,0.186,1.393,0.539c0.333,0.338,0.517,0.816,0.517,1.345
		V182.062L203.513,182.062z"/>
	<path fill="#2D2D2D" d="M187.671,182.539c0-2.104-1.168-3.359-3.123-3.359c-1.977,0-3.255,1.37-3.255,3.49
		c0,1.02,0.292,1.888,0.843,2.511c0.576,0.65,1.409,0.993,2.411,0.993c0.823,0,1.51-0.214,2.041-0.635
		c0.46-0.365,0.796-0.89,0.976-1.523h-1.198c-0.1,0.312-0.502,1.206-1.792,1.206c-0.631,0-1.159-0.231-1.526-0.669
		c-0.326-0.389-0.513-0.931-0.527-1.527l-0.001-0.049h5.143C187.671,182.868,187.671,182.701,187.671,182.539z M186.418,182.063
		h-3.901l0.004-0.052c0.08-1.124,0.879-1.88,1.988-1.88c0.564,0,1.046,0.186,1.393,0.539c0.333,0.338,0.517,0.816,0.517,1.345
		L186.418,182.063L186.418,182.063z"/>
</g>
</svg>
