<svg width="120" height="16" viewBox="0 4 163 12" fill="none" xmlns="http://www.w3.org/2000/svg">
<path d="M3.93505 9.11767C1.31889 9.52847 0 10.6744 0 12.5554C0 14.1122 1.16754 15.6256 3.58911 15.6256C5.03773 15.6256 6.09717 14.977 6.70256 13.9608V15.3229H8.36739V8.31768C8.36739 6.00422 6.85391 4.62046 4.15126 4.62046C1.90266 4.62046 0.0648635 6.00422 0.0648635 8.44741V8.68524L1.72969 8.81497C1.70807 8.75011 1.70807 8.642 1.70807 8.51227C1.70807 7.04203 2.63778 6.13395 4.21613 6.13395C5.79447 6.13395 6.70256 6.97717 6.70256 8.18796V8.68524L3.93505 9.11767ZM3.91343 14.0473C2.5513 14.0473 1.68645 13.4203 1.68645 12.4041C1.68645 11.3446 2.59454 10.8474 4.04316 10.5879L6.70256 10.1339V10.8906C6.70256 12.7933 5.55664 14.0473 3.91343 14.0473Z" fill="#0184FF"/>
<path d="M11.1364 15.3229H12.8661V9.42036C12.8661 7.43122 13.8174 6.24205 15.2228 6.24205C16.3687 6.24205 17.0822 7.02041 17.0822 8.49065C17.0822 8.72849 17.0822 8.90145 17.0606 9.03118L18.8119 8.79335V8.36093C18.8119 5.96098 17.5363 4.62046 15.6336 4.62046C14.4228 4.62046 13.4931 5.11775 12.8661 6.0907V4.94478H11.1364V15.3229Z" fill="#0184FF"/>
<path d="M19.7278 6.5015H21.7169V11.7338C21.7169 14.1554 23.2088 15.6473 25.6088 15.6473C27.7276 15.6473 29.3492 14.0473 29.2195 11.5825L27.533 11.4311C27.6195 13.0095 26.8412 14.0473 25.5439 14.0473C24.225 14.0473 23.4466 13.2473 23.4466 11.7771V6.5015H28.8736V4.94478H23.4466V1.78809H21.7169V4.94478H19.7278V6.5015Z" fill="#0184FF"/>
<path d="M31.3218 15.3229H33.0515V4.94478H31.3218V15.3229ZM32.1867 0.707031C31.4948 0.707031 30.9542 1.24756 30.9542 1.93944C30.9542 2.6097 31.4948 3.17184 32.1867 3.17184C32.8569 3.17184 33.4191 2.6097 33.4191 1.93944C33.4191 1.24756 32.8569 0.707031 32.1867 0.707031Z" fill="#0184FF"/>
<path d="M35.0408 11.5825C35.4516 14.0041 37.2462 15.6473 39.7326 15.6473C42.1758 15.6473 43.9055 14.2635 43.9055 12.296C43.9055 10.3717 42.5217 9.29064 39.7542 9.00956C38.111 8.83659 37.5273 8.31768 37.5273 7.5177C37.5273 6.76096 38.3489 6.24205 39.538 6.24205C40.7488 6.24205 41.6785 6.99879 41.9163 8.29606L43.4947 7.8204C43.0623 5.85287 41.4407 4.62046 39.538 4.62046C37.4191 4.62046 35.7759 5.83125 35.7759 7.5177C35.7759 9.31226 36.9651 10.4366 39.4948 10.696C41.4623 10.8906 42.1758 11.4744 42.1758 12.3392C42.1758 13.3554 41.2245 14.0473 39.7326 14.0473C38.0678 14.0473 36.9435 12.923 36.7489 11.2582L35.0408 11.5825Z" fill="#0184FF"/>
<path d="M44.6428 6.5015H46.632V11.7338C46.632 14.1554 48.1238 15.6473 50.5238 15.6473C52.6426 15.6473 54.2642 14.0473 54.1345 11.5825L52.4481 11.4311C52.5345 13.0095 51.7562 14.0473 50.4589 14.0473C49.14 14.0473 48.3617 13.2473 48.3617 11.7771V6.5015H53.7886V4.94478H48.3617V1.78809H46.632V4.94478H44.6428V6.5015Z" fill="#0184FF"/>
<path d="M59.7522 9.26548C57.136 9.67628 55.8171 10.8222 55.8171 12.7032C55.8171 14.26 56.9847 15.7735 59.4063 15.7735C60.8549 15.7735 61.9143 15.1248 62.5197 14.1086V15.4708H64.1845V8.4655C64.1845 6.15203 62.671 4.76828 59.9684 4.76828C57.7198 4.76828 55.882 6.15203 55.882 8.59522V8.83306L57.5468 8.96278C57.5252 8.89792 57.5252 8.78981 57.5252 8.66009C57.5252 7.18985 58.4549 6.28176 60.0333 6.28176C61.6116 6.28176 62.5197 7.12498 62.5197 8.33577V8.83306L59.7522 9.26548ZM59.7306 14.1951C58.3684 14.1951 57.5036 13.5681 57.5036 12.5519C57.5036 11.4925 58.4117 10.9952 59.8603 10.7357L62.5197 10.2817V11.0384C62.5197 12.9411 61.3738 14.1951 59.7306 14.1951Z" fill="#2D2D2D"/>
<path d="M66.9536 15.4708H68.6833V9.89249C68.6833 7.73038 69.8508 6.34662 71.6021 6.34662C73.2021 6.34662 74.0021 7.25471 74.0021 9.07089V15.4708H75.7318V8.70333C75.7318 6.28176 74.3696 4.76828 72.121 4.76828C70.6292 4.76828 69.4616 5.37367 68.6833 6.41149V5.09259H66.9536V15.4708Z" fill="#2D2D2D"/>
<path d="M77.7248 16.1194C77.5951 18.8653 79.6491 20.6382 82.3733 20.6382C85.4219 20.6382 87.5192 18.368 87.5192 15.2978V5.09259H85.7895V10.0871C85.7895 12.3141 84.6003 13.6978 82.7625 13.6978C81.0761 13.6978 80.2328 12.7897 80.2328 10.9519V5.09259H78.4815L78.5248 11.2979C78.5248 13.7843 79.9085 15.2762 82.2436 15.2978C83.7787 15.2762 84.9679 14.714 85.7895 13.6113V15.3626C85.7895 17.6113 84.449 19.0815 82.3733 19.0815C80.5572 19.0815 79.2599 17.9139 79.4112 15.9248L77.7248 16.1194Z" fill="#2D2D2D"/>
<path d="M89.4418 5.09259L92.6633 15.4708H94.3714L96.7497 7.73038L99.1281 15.4708H100.836L104.079 5.09259H102.328L99.9713 12.9627L97.5713 5.09259H95.9497L93.5282 12.9195L91.1498 5.09259H89.4418Z" fill="#2D2D2D"/>
<path d="M105.994 15.4708H107.724V9.89249C107.724 7.73038 108.891 6.34662 110.643 6.34662C112.243 6.34662 113.043 7.25471 113.043 9.07089V15.4708H114.772V8.70333C114.772 6.28176 113.41 4.76828 111.162 4.76828C109.67 4.76828 108.502 5.37367 107.724 6.41149V0.335938H105.994V15.4708Z" fill="#2D2D2D"/>
<path d="M122.019 4.7899C118.992 4.7899 116.938 7.18985 116.938 10.3033C116.938 13.46 119.036 15.7951 122.171 15.7951C124.592 15.7951 126.625 14.1519 126.927 11.8816L125.284 11.5789C125.046 13.2005 123.792 14.2167 122.171 14.2167C120.16 14.2167 118.755 12.7681 118.603 10.5195H126.646V9.63304C126.646 6.77905 124.808 4.7899 122.019 4.7899ZM118.69 9.04927C119.1 7.40606 120.354 6.325 122.019 6.325C123.749 6.325 124.917 7.47092 124.981 9.04927H118.69Z" fill="#2D2D2D"/>
<path d="M129.093 15.4708H130.823V9.56818C130.823 7.57903 131.774 6.38986 133.18 6.38986C134.326 6.38986 135.039 7.16823 135.039 8.63847C135.039 8.8763 135.039 9.04927 135.018 9.179L136.769 8.94116V8.50874C136.769 6.10879 135.493 4.76828 133.591 4.76828C132.38 4.76828 131.45 5.26556 130.823 6.23852V5.09259H129.093V15.4708Z" fill="#2D2D2D"/>
<path d="M143.091 4.7899C140.065 4.7899 138.011 7.18985 138.011 10.3033C138.011 13.46 140.108 15.7951 143.243 15.7951C145.664 15.7951 147.697 14.1519 147.999 11.8816L146.356 11.5789C146.118 13.2005 144.864 14.2167 143.243 14.2167C141.232 14.2167 139.827 12.7681 139.675 10.5195H147.718V9.63304C147.718 6.77905 145.881 4.7899 143.091 4.7899ZM139.762 9.04927C140.173 7.40606 141.427 6.325 143.091 6.325C144.821 6.325 145.989 7.47092 146.054 9.04927H139.762Z" fill="#2D2D2D"/>
</svg>
